<?xml version="1.0" encoding="UTF-8"?>
<svg xmlns="http://www.w3.org/2000/svg" viewBox="0 0 12 12"><defs><style>.cls-1{fill:#fffaf0;}.cls-2{fill:#fc0;}.cls-3{fill:#b4641e;}</style></defs><g id="レイヤー_2" data-name="レイヤー 2"><g id="レイヤー_2-2" data-name="レイヤー 2"><polygon class="cls-1" points="2 2 2 6 4 6 4 8 4 10 8 10 8 8 8 6 10 6 10 2 2 2"/><rect class="cls-2" x="4" y="4" width="4" height="4"/><rect class="cls-3" x="2" width="8" height="2"/><rect class="cls-3" y="2" width="2" height="4"/><rect class="cls-3" x="10" y="2" width="2" height="4"/><polygon class="cls-3" points="8 10 4 10 4 6 2 6 2 10 2 12 4 12 8 12 10 12 10 10 10 6 8 6 8 10"/></g></g></svg>