<?xml version="1.0" encoding="UTF-8"?>
<svg xmlns="http://www.w3.org/2000/svg" viewBox="0 0 14 14"><defs><style>.cls-1{fill:#24bc0f;}.cls-2{fill:#fffaf0;}.cls-3{fill:#e49d23;}.cls-4{fill:#8d5e34;}</style></defs><g id="レイヤー_2" data-name="レイヤー 2"><g id="レイヤー_2-2" data-name="レイヤー 2"><polygon class="cls-1" points="10 0 10 2 8 2 8 0 6 0 6 2 4 2 4 4 12 4 12 2 12 0 10 0"/><rect class="cls-1" x="4" y="8" width="8" height="6"/><rect class="cls-2" x="4" y="8" width="6" height="2"/><rect class="cls-3" x="4" y="4" width="8" height="4"/><rect class="cls-4" x="6" y="4" width="2" height="2"/><rect class="cls-4" x="2" y="4" width="2" height="2"/><rect class="cls-3" x="2" y="12" width="2" height="2"/><rect class="cls-3" x="8" y="12" width="2" height="2"/><rect class="cls-3" x="12" y="8" width="2" height="2"/><rect class="cls-1" x="2" y="8" width="2" height="2"/><rect class="cls-3" y="8" width="2" height="2"/></g></g></svg>