<?xml version="1.0" encoding="UTF-8"?>
<svg xmlns="http://www.w3.org/2000/svg" viewBox="0 0 14 18"><defs><style>.cls-1{fill:#b4641e;}.cls-2{fill:#057131;}.cls-3{fill:#e7271e;}.cls-4{fill:#ffda0d;}</style></defs><g id="レイヤー_2" data-name="レイヤー 2"><g id="レイヤー_2-2" data-name="レイヤー 2"><rect class="cls-1" x="6" y="14" width="2" height="4"/><polygon class="cls-2" points="12 12 12 10 10 10 10 8 12 8 12 6 10 6 10 4 8 4 8 2 6 2 6 4 4 4 4 6 2 6 2 8 4 8 4 10 2 10 2 12 0 12 0 14 2 14 4 14 6 14 8 14 10 14 12 14 14 14 14 12 12 12"/><rect class="cls-3" x="4" y="6" width="2" height="2"/><rect class="cls-4" x="6" width="2" height="2"/><rect class="cls-3" x="8" y="10" width="2" height="2"/></g></g></svg>